<mxfile host="app.diagrams.net" modified="2023-11-25T19:57:27.942Z" agent="Mozilla/5.0 (Windows NT 10.0; Win64; x64; rv:120.0) Gecko/20100101 Firefox/120.0" etag="n--YtQadDaM3JWF0o603" version="22.1.4" type="device">
  <diagram name="Сторінка-1" id="i3JkkJN7uU9i16QCfTWo">
    <mxGraphModel dx="1822" dy="627" grid="1" gridSize="10" guides="1" tooltips="1" connect="1" arrows="1" fold="1" page="1" pageScale="1" pageWidth="827" pageHeight="1169" math="0" shadow="0">
      <root>
        <mxCell id="0" />
        <mxCell id="1" parent="0" />
        <mxCell id="iMSlGVJYnU4fRqpMts-l-1" value="&lt;i&gt;Field&lt;/i&gt;" style="swimlane;fontStyle=1;align=center;verticalAlign=top;childLayout=stackLayout;horizontal=1;startSize=26;horizontalStack=0;resizeParent=1;resizeParentMax=0;resizeLast=0;collapsible=1;marginBottom=0;whiteSpace=wrap;html=1;" vertex="1" parent="1">
          <mxGeometry x="110" y="525" width="160" height="60" as="geometry" />
        </mxCell>
        <mxCell id="iMSlGVJYnU4fRqpMts-l-3" value="" style="line;strokeWidth=1;fillColor=none;align=left;verticalAlign=middle;spacingTop=-1;spacingLeft=3;spacingRight=3;rotatable=0;labelPosition=right;points=[];portConstraint=eastwest;strokeColor=inherit;" vertex="1" parent="iMSlGVJYnU4fRqpMts-l-1">
          <mxGeometry y="26" width="160" height="8" as="geometry" />
        </mxCell>
        <mxCell id="iMSlGVJYnU4fRqpMts-l-4" value="+__getitem__(self, value)" style="text;strokeColor=none;fillColor=none;align=left;verticalAlign=top;spacingLeft=4;spacingRight=4;overflow=hidden;rotatable=0;points=[[0,0.5],[1,0.5]];portConstraint=eastwest;whiteSpace=wrap;html=1;" vertex="1" parent="iMSlGVJYnU4fRqpMts-l-1">
          <mxGeometry y="34" width="160" height="26" as="geometry" />
        </mxCell>
        <mxCell id="iMSlGVJYnU4fRqpMts-l-33" value="Extends" style="endArrow=block;endSize=16;endFill=0;html=1;rounded=0;entryX=0.5;entryY=1;entryDx=0;entryDy=0;exitX=0.5;exitY=0;exitDx=0;exitDy=0;" edge="1" parent="1" target="iMSlGVJYnU4fRqpMts-l-1">
          <mxGeometry width="160" relative="1" as="geometry">
            <mxPoint x="120" y="670" as="sourcePoint" />
            <mxPoint x="380" y="890" as="targetPoint" />
          </mxGeometry>
        </mxCell>
        <mxCell id="iMSlGVJYnU4fRqpMts-l-34" value="Extends" style="endArrow=block;endSize=16;endFill=0;html=1;rounded=0;exitX=0.5;exitY=0;exitDx=0;exitDy=0;entryX=0.519;entryY=1.019;entryDx=0;entryDy=0;entryPerimeter=0;" edge="1" parent="1" target="iMSlGVJYnU4fRqpMts-l-4">
          <mxGeometry width="160" relative="1" as="geometry">
            <mxPoint x="280" y="670" as="sourcePoint" />
            <mxPoint x="200" y="610" as="targetPoint" />
          </mxGeometry>
        </mxCell>
        <mxCell id="iMSlGVJYnU4fRqpMts-l-35" value="Extends" style="endArrow=block;endSize=16;endFill=0;html=1;rounded=0;exitX=0.5;exitY=0;exitDx=0;exitDy=0;entryX=0;entryY=0.5;entryDx=0;entryDy=0;" edge="1" parent="1" target="iMSlGVJYnU4fRqpMts-l-4">
          <mxGeometry width="160" relative="1" as="geometry">
            <mxPoint x="-39.99999999999977" y="670" as="sourcePoint" />
            <mxPoint x="200" y="610" as="targetPoint" />
          </mxGeometry>
        </mxCell>
        <mxCell id="iMSlGVJYnU4fRqpMts-l-36" value="Extends" style="endArrow=block;endSize=16;endFill=0;html=1;rounded=0;entryX=0;entryY=0.5;entryDx=0;entryDy=0;exitX=0.5;exitY=0;exitDx=0;exitDy=0;" edge="1" parent="1" target="iMSlGVJYnU4fRqpMts-l-4">
          <mxGeometry width="160" relative="1" as="geometry">
            <mxPoint x="-200.00000000000023" y="670" as="sourcePoint" />
            <mxPoint x="230" y="640" as="targetPoint" />
          </mxGeometry>
        </mxCell>
        <mxCell id="iMSlGVJYnU4fRqpMts-l-37" value="Extends" style="endArrow=block;endSize=16;endFill=0;html=1;rounded=0;entryX=1;entryY=0.5;entryDx=0;entryDy=0;exitX=0.5;exitY=0;exitDx=0;exitDy=0;" edge="1" parent="1" target="iMSlGVJYnU4fRqpMts-l-4">
          <mxGeometry width="160" relative="1" as="geometry">
            <mxPoint x="440" y="670" as="sourcePoint" />
            <mxPoint x="240" y="650" as="targetPoint" />
          </mxGeometry>
        </mxCell>
        <mxCell id="iMSlGVJYnU4fRqpMts-l-38" value="Extends" style="endArrow=block;endSize=16;endFill=0;html=1;rounded=0;entryX=1;entryY=0.5;entryDx=0;entryDy=0;exitX=0.5;exitY=0;exitDx=0;exitDy=0;" edge="1" parent="1" target="iMSlGVJYnU4fRqpMts-l-4">
          <mxGeometry width="160" relative="1" as="geometry">
            <mxPoint x="600" y="670" as="sourcePoint" />
            <mxPoint x="250" y="660" as="targetPoint" />
          </mxGeometry>
        </mxCell>
        <mxCell id="iMSlGVJYnU4fRqpMts-l-43" value="Name" style="swimlane;fontStyle=1;align=center;verticalAlign=top;childLayout=stackLayout;horizontal=1;startSize=26;horizontalStack=0;resizeParent=1;resizeParentMax=0;resizeLast=0;collapsible=1;marginBottom=0;whiteSpace=wrap;html=1;" vertex="1" parent="1">
          <mxGeometry x="-290" y="670" width="160" height="112" as="geometry" />
        </mxCell>
        <mxCell id="iMSlGVJYnU4fRqpMts-l-44" value="+ value" style="text;strokeColor=none;fillColor=none;align=left;verticalAlign=top;spacingLeft=4;spacingRight=4;overflow=hidden;rotatable=0;points=[[0,0.5],[1,0.5]];portConstraint=eastwest;whiteSpace=wrap;html=1;" vertex="1" parent="iMSlGVJYnU4fRqpMts-l-43">
          <mxGeometry y="26" width="160" height="26" as="geometry" />
        </mxCell>
        <mxCell id="iMSlGVJYnU4fRqpMts-l-45" value="" style="line;strokeWidth=1;fillColor=none;align=left;verticalAlign=middle;spacingTop=-1;spacingLeft=3;spacingRight=3;rotatable=0;labelPosition=right;points=[];portConstraint=eastwest;strokeColor=inherit;" vertex="1" parent="iMSlGVJYnU4fRqpMts-l-43">
          <mxGeometry y="52" width="160" height="8" as="geometry" />
        </mxCell>
        <mxCell id="iMSlGVJYnU4fRqpMts-l-46" value="-__init__" style="text;strokeColor=none;fillColor=none;align=left;verticalAlign=top;spacingLeft=4;spacingRight=4;overflow=hidden;rotatable=0;points=[[0,0.5],[1,0.5]];portConstraint=eastwest;whiteSpace=wrap;html=1;" vertex="1" parent="iMSlGVJYnU4fRqpMts-l-43">
          <mxGeometry y="60" width="160" height="26" as="geometry" />
        </mxCell>
        <mxCell id="iMSlGVJYnU4fRqpMts-l-48" value="-__getitem__" style="text;strokeColor=none;fillColor=none;align=left;verticalAlign=top;spacingLeft=4;spacingRight=4;overflow=hidden;rotatable=0;points=[[0,0.5],[1,0.5]];portConstraint=eastwest;whiteSpace=wrap;html=1;" vertex="1" parent="iMSlGVJYnU4fRqpMts-l-43">
          <mxGeometry y="86" width="160" height="26" as="geometry" />
        </mxCell>
        <mxCell id="iMSlGVJYnU4fRqpMts-l-49" value="Phone" style="swimlane;fontStyle=1;align=center;verticalAlign=top;childLayout=stackLayout;horizontal=1;startSize=26;horizontalStack=0;resizeParent=1;resizeParentMax=0;resizeLast=0;collapsible=1;marginBottom=0;whiteSpace=wrap;html=1;" vertex="1" parent="1">
          <mxGeometry x="-120" y="670" width="160" height="112" as="geometry" />
        </mxCell>
        <mxCell id="iMSlGVJYnU4fRqpMts-l-50" value="+ value" style="text;strokeColor=none;fillColor=none;align=left;verticalAlign=top;spacingLeft=4;spacingRight=4;overflow=hidden;rotatable=0;points=[[0,0.5],[1,0.5]];portConstraint=eastwest;whiteSpace=wrap;html=1;" vertex="1" parent="iMSlGVJYnU4fRqpMts-l-49">
          <mxGeometry y="26" width="160" height="26" as="geometry" />
        </mxCell>
        <mxCell id="iMSlGVJYnU4fRqpMts-l-51" value="" style="line;strokeWidth=1;fillColor=none;align=left;verticalAlign=middle;spacingTop=-1;spacingLeft=3;spacingRight=3;rotatable=0;labelPosition=right;points=[];portConstraint=eastwest;strokeColor=inherit;" vertex="1" parent="iMSlGVJYnU4fRqpMts-l-49">
          <mxGeometry y="52" width="160" height="8" as="geometry" />
        </mxCell>
        <mxCell id="iMSlGVJYnU4fRqpMts-l-52" value="- __init__" style="text;strokeColor=none;fillColor=none;align=left;verticalAlign=top;spacingLeft=4;spacingRight=4;overflow=hidden;rotatable=0;points=[[0,0.5],[1,0.5]];portConstraint=eastwest;whiteSpace=wrap;html=1;" vertex="1" parent="iMSlGVJYnU4fRqpMts-l-49">
          <mxGeometry y="60" width="160" height="26" as="geometry" />
        </mxCell>
        <mxCell id="iMSlGVJYnU4fRqpMts-l-53" value="- __getitem__" style="text;strokeColor=none;fillColor=none;align=left;verticalAlign=top;spacingLeft=4;spacingRight=4;overflow=hidden;rotatable=0;points=[[0,0.5],[1,0.5]];portConstraint=eastwest;whiteSpace=wrap;html=1;" vertex="1" parent="iMSlGVJYnU4fRqpMts-l-49">
          <mxGeometry y="86" width="160" height="26" as="geometry" />
        </mxCell>
        <mxCell id="iMSlGVJYnU4fRqpMts-l-54" value="Birthday" style="swimlane;fontStyle=1;align=center;verticalAlign=top;childLayout=stackLayout;horizontal=1;startSize=26;horizontalStack=0;resizeParent=1;resizeParentMax=0;resizeLast=0;collapsible=1;marginBottom=0;whiteSpace=wrap;html=1;" vertex="1" parent="1">
          <mxGeometry x="50" y="670" width="160" height="112" as="geometry" />
        </mxCell>
        <mxCell id="iMSlGVJYnU4fRqpMts-l-55" value="+ value" style="text;strokeColor=none;fillColor=none;align=left;verticalAlign=top;spacingLeft=4;spacingRight=4;overflow=hidden;rotatable=0;points=[[0,0.5],[1,0.5]];portConstraint=eastwest;whiteSpace=wrap;html=1;" vertex="1" parent="iMSlGVJYnU4fRqpMts-l-54">
          <mxGeometry y="26" width="160" height="26" as="geometry" />
        </mxCell>
        <mxCell id="iMSlGVJYnU4fRqpMts-l-56" value="" style="line;strokeWidth=1;fillColor=none;align=left;verticalAlign=middle;spacingTop=-1;spacingLeft=3;spacingRight=3;rotatable=0;labelPosition=right;points=[];portConstraint=eastwest;strokeColor=inherit;" vertex="1" parent="iMSlGVJYnU4fRqpMts-l-54">
          <mxGeometry y="52" width="160" height="8" as="geometry" />
        </mxCell>
        <mxCell id="iMSlGVJYnU4fRqpMts-l-57" value="- __init__" style="text;strokeColor=none;fillColor=none;align=left;verticalAlign=top;spacingLeft=4;spacingRight=4;overflow=hidden;rotatable=0;points=[[0,0.5],[1,0.5]];portConstraint=eastwest;whiteSpace=wrap;html=1;" vertex="1" parent="iMSlGVJYnU4fRqpMts-l-54">
          <mxGeometry y="60" width="160" height="26" as="geometry" />
        </mxCell>
        <mxCell id="iMSlGVJYnU4fRqpMts-l-58" value="- __getitem__" style="text;strokeColor=none;fillColor=none;align=left;verticalAlign=top;spacingLeft=4;spacingRight=4;overflow=hidden;rotatable=0;points=[[0,0.5],[1,0.5]];portConstraint=eastwest;whiteSpace=wrap;html=1;" vertex="1" parent="iMSlGVJYnU4fRqpMts-l-54">
          <mxGeometry y="86" width="160" height="26" as="geometry" />
        </mxCell>
        <mxCell id="iMSlGVJYnU4fRqpMts-l-59" value="Email" style="swimlane;fontStyle=1;align=center;verticalAlign=top;childLayout=stackLayout;horizontal=1;startSize=26;horizontalStack=0;resizeParent=1;resizeParentMax=0;resizeLast=0;collapsible=1;marginBottom=0;whiteSpace=wrap;html=1;" vertex="1" parent="1">
          <mxGeometry x="220" y="670" width="160" height="112" as="geometry" />
        </mxCell>
        <mxCell id="iMSlGVJYnU4fRqpMts-l-60" value="+ value" style="text;strokeColor=none;fillColor=none;align=left;verticalAlign=top;spacingLeft=4;spacingRight=4;overflow=hidden;rotatable=0;points=[[0,0.5],[1,0.5]];portConstraint=eastwest;whiteSpace=wrap;html=1;" vertex="1" parent="iMSlGVJYnU4fRqpMts-l-59">
          <mxGeometry y="26" width="160" height="26" as="geometry" />
        </mxCell>
        <mxCell id="iMSlGVJYnU4fRqpMts-l-61" value="" style="line;strokeWidth=1;fillColor=none;align=left;verticalAlign=middle;spacingTop=-1;spacingLeft=3;spacingRight=3;rotatable=0;labelPosition=right;points=[];portConstraint=eastwest;strokeColor=inherit;" vertex="1" parent="iMSlGVJYnU4fRqpMts-l-59">
          <mxGeometry y="52" width="160" height="8" as="geometry" />
        </mxCell>
        <mxCell id="iMSlGVJYnU4fRqpMts-l-62" value="- __init__" style="text;strokeColor=none;fillColor=none;align=left;verticalAlign=top;spacingLeft=4;spacingRight=4;overflow=hidden;rotatable=0;points=[[0,0.5],[1,0.5]];portConstraint=eastwest;whiteSpace=wrap;html=1;" vertex="1" parent="iMSlGVJYnU4fRqpMts-l-59">
          <mxGeometry y="60" width="160" height="26" as="geometry" />
        </mxCell>
        <mxCell id="iMSlGVJYnU4fRqpMts-l-63" value="- __getitem__" style="text;strokeColor=none;fillColor=none;align=left;verticalAlign=top;spacingLeft=4;spacingRight=4;overflow=hidden;rotatable=0;points=[[0,0.5],[1,0.5]];portConstraint=eastwest;whiteSpace=wrap;html=1;" vertex="1" parent="iMSlGVJYnU4fRqpMts-l-59">
          <mxGeometry y="86" width="160" height="26" as="geometry" />
        </mxCell>
        <mxCell id="iMSlGVJYnU4fRqpMts-l-64" value="Status" style="swimlane;fontStyle=1;align=center;verticalAlign=top;childLayout=stackLayout;horizontal=1;startSize=26;horizontalStack=0;resizeParent=1;resizeParentMax=0;resizeLast=0;collapsible=1;marginBottom=0;whiteSpace=wrap;html=1;" vertex="1" parent="1">
          <mxGeometry x="390" y="670" width="160" height="112" as="geometry" />
        </mxCell>
        <mxCell id="iMSlGVJYnU4fRqpMts-l-65" value="+ value" style="text;strokeColor=none;fillColor=none;align=left;verticalAlign=top;spacingLeft=4;spacingRight=4;overflow=hidden;rotatable=0;points=[[0,0.5],[1,0.5]];portConstraint=eastwest;whiteSpace=wrap;html=1;" vertex="1" parent="iMSlGVJYnU4fRqpMts-l-64">
          <mxGeometry y="26" width="160" height="26" as="geometry" />
        </mxCell>
        <mxCell id="iMSlGVJYnU4fRqpMts-l-66" value="" style="line;strokeWidth=1;fillColor=none;align=left;verticalAlign=middle;spacingTop=-1;spacingLeft=3;spacingRight=3;rotatable=0;labelPosition=right;points=[];portConstraint=eastwest;strokeColor=inherit;" vertex="1" parent="iMSlGVJYnU4fRqpMts-l-64">
          <mxGeometry y="52" width="160" height="8" as="geometry" />
        </mxCell>
        <mxCell id="iMSlGVJYnU4fRqpMts-l-67" value="- __init__" style="text;strokeColor=none;fillColor=none;align=left;verticalAlign=top;spacingLeft=4;spacingRight=4;overflow=hidden;rotatable=0;points=[[0,0.5],[1,0.5]];portConstraint=eastwest;whiteSpace=wrap;html=1;" vertex="1" parent="iMSlGVJYnU4fRqpMts-l-64">
          <mxGeometry y="60" width="160" height="26" as="geometry" />
        </mxCell>
        <mxCell id="iMSlGVJYnU4fRqpMts-l-68" value="- __getitem__" style="text;strokeColor=none;fillColor=none;align=left;verticalAlign=top;spacingLeft=4;spacingRight=4;overflow=hidden;rotatable=0;points=[[0,0.5],[1,0.5]];portConstraint=eastwest;whiteSpace=wrap;html=1;" vertex="1" parent="iMSlGVJYnU4fRqpMts-l-64">
          <mxGeometry y="86" width="160" height="26" as="geometry" />
        </mxCell>
        <mxCell id="iMSlGVJYnU4fRqpMts-l-69" value="Note" style="swimlane;fontStyle=1;align=center;verticalAlign=top;childLayout=stackLayout;horizontal=1;startSize=26;horizontalStack=0;resizeParent=1;resizeParentMax=0;resizeLast=0;collapsible=1;marginBottom=0;whiteSpace=wrap;html=1;" vertex="1" parent="1">
          <mxGeometry x="560" y="670" width="160" height="112" as="geometry" />
        </mxCell>
        <mxCell id="iMSlGVJYnU4fRqpMts-l-70" value="+ value" style="text;strokeColor=none;fillColor=none;align=left;verticalAlign=top;spacingLeft=4;spacingRight=4;overflow=hidden;rotatable=0;points=[[0,0.5],[1,0.5]];portConstraint=eastwest;whiteSpace=wrap;html=1;" vertex="1" parent="iMSlGVJYnU4fRqpMts-l-69">
          <mxGeometry y="26" width="160" height="26" as="geometry" />
        </mxCell>
        <mxCell id="iMSlGVJYnU4fRqpMts-l-71" value="" style="line;strokeWidth=1;fillColor=none;align=left;verticalAlign=middle;spacingTop=-1;spacingLeft=3;spacingRight=3;rotatable=0;labelPosition=right;points=[];portConstraint=eastwest;strokeColor=inherit;" vertex="1" parent="iMSlGVJYnU4fRqpMts-l-69">
          <mxGeometry y="52" width="160" height="8" as="geometry" />
        </mxCell>
        <mxCell id="iMSlGVJYnU4fRqpMts-l-72" value="- __init__" style="text;strokeColor=none;fillColor=none;align=left;verticalAlign=top;spacingLeft=4;spacingRight=4;overflow=hidden;rotatable=0;points=[[0,0.5],[1,0.5]];portConstraint=eastwest;whiteSpace=wrap;html=1;" vertex="1" parent="iMSlGVJYnU4fRqpMts-l-69">
          <mxGeometry y="60" width="160" height="26" as="geometry" />
        </mxCell>
        <mxCell id="iMSlGVJYnU4fRqpMts-l-73" value="- __getitem__" style="text;strokeColor=none;fillColor=none;align=left;verticalAlign=top;spacingLeft=4;spacingRight=4;overflow=hidden;rotatable=0;points=[[0,0.5],[1,0.5]];portConstraint=eastwest;whiteSpace=wrap;html=1;" vertex="1" parent="iMSlGVJYnU4fRqpMts-l-69">
          <mxGeometry y="86" width="160" height="26" as="geometry" />
        </mxCell>
        <mxCell id="iMSlGVJYnU4fRqpMts-l-78" value="Bot" style="swimlane;fontStyle=1;align=center;verticalAlign=top;childLayout=stackLayout;horizontal=1;startSize=26;horizontalStack=0;resizeParent=1;resizeParentMax=0;resizeLast=0;collapsible=1;marginBottom=0;whiteSpace=wrap;html=1;" vertex="1" parent="1">
          <mxGeometry x="-320" y="60" width="160" height="86" as="geometry" />
        </mxCell>
        <mxCell id="iMSlGVJYnU4fRqpMts-l-79" value="+ book" style="text;strokeColor=none;fillColor=none;align=left;verticalAlign=top;spacingLeft=4;spacingRight=4;overflow=hidden;rotatable=0;points=[[0,0.5],[1,0.5]];portConstraint=eastwest;whiteSpace=wrap;html=1;" vertex="1" parent="iMSlGVJYnU4fRqpMts-l-78">
          <mxGeometry y="26" width="160" height="26" as="geometry" />
        </mxCell>
        <mxCell id="iMSlGVJYnU4fRqpMts-l-80" value="" style="line;strokeWidth=1;fillColor=none;align=left;verticalAlign=middle;spacingTop=-1;spacingLeft=3;spacingRight=3;rotatable=0;labelPosition=right;points=[];portConstraint=eastwest;strokeColor=inherit;" vertex="1" parent="iMSlGVJYnU4fRqpMts-l-78">
          <mxGeometry y="52" width="160" height="8" as="geometry" />
        </mxCell>
        <mxCell id="iMSlGVJYnU4fRqpMts-l-81" value="+ handle(self, action):None" style="text;strokeColor=none;fillColor=none;align=left;verticalAlign=top;spacingLeft=4;spacingRight=4;overflow=hidden;rotatable=0;points=[[0,0.5],[1,0.5]];portConstraint=eastwest;whiteSpace=wrap;html=1;" vertex="1" parent="iMSlGVJYnU4fRqpMts-l-78">
          <mxGeometry y="60" width="160" height="26" as="geometry" />
        </mxCell>
        <mxCell id="iMSlGVJYnU4fRqpMts-l-85" value="AddressBook" style="swimlane;fontStyle=1;align=center;verticalAlign=top;childLayout=stackLayout;horizontal=1;startSize=26;horizontalStack=0;resizeParent=1;resizeParentMax=0;resizeLast=0;collapsible=1;marginBottom=0;whiteSpace=wrap;html=1;" vertex="1" parent="1">
          <mxGeometry x="40" y="20" width="160" height="432" as="geometry" />
        </mxCell>
        <mxCell id="iMSlGVJYnU4fRqpMts-l-86" value="+ data" style="text;strokeColor=none;fillColor=none;align=left;verticalAlign=top;spacingLeft=4;spacingRight=4;overflow=hidden;rotatable=0;points=[[0,0.5],[1,0.5]];portConstraint=eastwest;whiteSpace=wrap;html=1;" vertex="1" parent="iMSlGVJYnU4fRqpMts-l-85">
          <mxGeometry y="26" width="160" height="26" as="geometry" />
        </mxCell>
        <mxCell id="iMSlGVJYnU4fRqpMts-l-89" value="+ counter" style="text;strokeColor=none;fillColor=none;align=left;verticalAlign=top;spacingLeft=4;spacingRight=4;overflow=hidden;rotatable=0;points=[[0,0.5],[1,0.5]];portConstraint=eastwest;whiteSpace=wrap;html=1;" vertex="1" parent="iMSlGVJYnU4fRqpMts-l-85">
          <mxGeometry y="52" width="160" height="26" as="geometry" />
        </mxCell>
        <mxCell id="iMSlGVJYnU4fRqpMts-l-87" value="" style="line;strokeWidth=1;fillColor=none;align=left;verticalAlign=middle;spacingTop=-1;spacingLeft=3;spacingRight=3;rotatable=0;labelPosition=right;points=[];portConstraint=eastwest;strokeColor=inherit;" vertex="1" parent="iMSlGVJYnU4fRqpMts-l-85">
          <mxGeometry y="78" width="160" height="8" as="geometry" />
        </mxCell>
        <mxCell id="iMSlGVJYnU4fRqpMts-l-88" value="+log (self, action): None" style="text;strokeColor=none;fillColor=none;align=left;verticalAlign=top;spacingLeft=4;spacingRight=4;overflow=hidden;rotatable=0;points=[[0,0.5],[1,0.5]];portConstraint=eastwest;whiteSpace=wrap;html=1;" vertex="1" parent="iMSlGVJYnU4fRqpMts-l-85">
          <mxGeometry y="86" width="160" height="26" as="geometry" />
        </mxCell>
        <mxCell id="iMSlGVJYnU4fRqpMts-l-91" value="+add (self, record): None" style="text;strokeColor=none;fillColor=none;align=left;verticalAlign=top;spacingLeft=4;spacingRight=4;overflow=hidden;rotatable=0;points=[[0,0.5],[1,0.5]];portConstraint=eastwest;whiteSpace=wrap;html=1;" vertex="1" parent="iMSlGVJYnU4fRqpMts-l-85">
          <mxGeometry y="112" width="160" height="26" as="geometry" />
        </mxCell>
        <mxCell id="iMSlGVJYnU4fRqpMts-l-92" value="+save (self, file_name):None None" style="text;strokeColor=none;fillColor=none;align=left;verticalAlign=top;spacingLeft=4;spacingRight=4;overflow=hidden;rotatable=0;points=[[0,0.5],[1,0.5]];portConstraint=eastwest;whiteSpace=wrap;html=1;" vertex="1" parent="iMSlGVJYnU4fRqpMts-l-85">
          <mxGeometry y="138" width="160" height="42" as="geometry" />
        </mxCell>
        <mxCell id="iMSlGVJYnU4fRqpMts-l-93" value="+load (self, file_name): None" style="text;strokeColor=none;fillColor=none;align=left;verticalAlign=top;spacingLeft=4;spacingRight=4;overflow=hidden;rotatable=0;points=[[0,0.5],[1,0.5]];portConstraint=eastwest;whiteSpace=wrap;html=1;" vertex="1" parent="iMSlGVJYnU4fRqpMts-l-85">
          <mxGeometry y="180" width="160" height="36" as="geometry" />
        </mxCell>
        <mxCell id="iMSlGVJYnU4fRqpMts-l-94" value="+search (self, pattern, category): list" style="text;strokeColor=none;fillColor=none;align=left;verticalAlign=top;spacingLeft=4;spacingRight=4;overflow=hidden;rotatable=0;points=[[0,0.5],[1,0.5]];portConstraint=eastwest;whiteSpace=wrap;html=1;" vertex="1" parent="iMSlGVJYnU4fRqpMts-l-85">
          <mxGeometry y="216" width="160" height="36" as="geometry" />
        </mxCell>
        <mxCell id="iMSlGVJYnU4fRqpMts-l-95" value="+edit (self, contact_name, pattern, new_value): bool" style="text;strokeColor=none;fillColor=none;align=left;verticalAlign=top;spacingLeft=4;spacingRight=4;overflow=hidden;rotatable=0;points=[[0,0.5],[1,0.5]];portConstraint=eastwest;whiteSpace=wrap;html=1;" vertex="1" parent="iMSlGVJYnU4fRqpMts-l-85">
          <mxGeometry y="252" width="160" height="36" as="geometry" />
        </mxCell>
        <mxCell id="iMSlGVJYnU4fRqpMts-l-96" value="+remove (self pattern): bool" style="text;strokeColor=none;fillColor=none;align=left;verticalAlign=top;spacingLeft=4;spacingRight=4;overflow=hidden;rotatable=0;points=[[0,0.5],[1,0.5]];portConstraint=eastwest;whiteSpace=wrap;html=1;" vertex="1" parent="iMSlGVJYnU4fRqpMts-l-85">
          <mxGeometry y="288" width="160" height="36" as="geometry" />
        </mxCell>
        <mxCell id="iMSlGVJYnU4fRqpMts-l-97" value="+remove (self pattern): bool" style="text;strokeColor=none;fillColor=none;align=left;verticalAlign=top;spacingLeft=4;spacingRight=4;overflow=hidden;rotatable=0;points=[[0,0.5],[1,0.5]];portConstraint=eastwest;whiteSpace=wrap;html=1;" vertex="1" parent="iMSlGVJYnU4fRqpMts-l-85">
          <mxGeometry y="324" width="160" height="36" as="geometry" />
        </mxCell>
        <mxCell id="iMSlGVJYnU4fRqpMts-l-98" value="-__get_current_week (self): list" style="text;strokeColor=none;fillColor=none;align=left;verticalAlign=top;spacingLeft=4;spacingRight=4;overflow=hidden;rotatable=0;points=[[0,0.5],[1,0.5]];portConstraint=eastwest;whiteSpace=wrap;html=1;" vertex="1" parent="iMSlGVJYnU4fRqpMts-l-85">
          <mxGeometry y="360" width="160" height="36" as="geometry" />
        </mxCell>
        <mxCell id="iMSlGVJYnU4fRqpMts-l-99" value="+congratulate (self): str" style="text;strokeColor=none;fillColor=none;align=left;verticalAlign=top;spacingLeft=4;spacingRight=4;overflow=hidden;rotatable=0;points=[[0,0.5],[1,0.5]];portConstraint=eastwest;whiteSpace=wrap;html=1;" vertex="1" parent="iMSlGVJYnU4fRqpMts-l-85">
          <mxGeometry y="396" width="160" height="36" as="geometry" />
        </mxCell>
        <mxCell id="iMSlGVJYnU4fRqpMts-l-101" value="Record" style="swimlane;fontStyle=1;align=center;verticalAlign=top;childLayout=stackLayout;horizontal=1;startSize=26;horizontalStack=0;resizeParent=1;resizeParentMax=0;resizeLast=0;collapsible=1;marginBottom=0;whiteSpace=wrap;html=1;" vertex="1" parent="1">
          <mxGeometry x="370" y="120" width="160" height="230" as="geometry" />
        </mxCell>
        <mxCell id="iMSlGVJYnU4fRqpMts-l-102" value="+ birthday" style="text;strokeColor=none;fillColor=none;align=left;verticalAlign=top;spacingLeft=4;spacingRight=4;overflow=hidden;rotatable=0;points=[[0,0.5],[1,0.5]];portConstraint=eastwest;whiteSpace=wrap;html=1;" vertex="1" parent="iMSlGVJYnU4fRqpMts-l-101">
          <mxGeometry y="26" width="160" height="26" as="geometry" />
        </mxCell>
        <mxCell id="iMSlGVJYnU4fRqpMts-l-105" value="+ name" style="text;strokeColor=none;fillColor=none;align=left;verticalAlign=top;spacingLeft=4;spacingRight=4;overflow=hidden;rotatable=0;points=[[0,0.5],[1,0.5]];portConstraint=eastwest;whiteSpace=wrap;html=1;" vertex="1" parent="iMSlGVJYnU4fRqpMts-l-101">
          <mxGeometry y="52" width="160" height="26" as="geometry" />
        </mxCell>
        <mxCell id="iMSlGVJYnU4fRqpMts-l-106" value="+ phones" style="text;strokeColor=none;fillColor=none;align=left;verticalAlign=top;spacingLeft=4;spacingRight=4;overflow=hidden;rotatable=0;points=[[0,0.5],[1,0.5]];portConstraint=eastwest;whiteSpace=wrap;html=1;" vertex="1" parent="iMSlGVJYnU4fRqpMts-l-101">
          <mxGeometry y="78" width="160" height="26" as="geometry" />
        </mxCell>
        <mxCell id="iMSlGVJYnU4fRqpMts-l-107" value="+ email" style="text;strokeColor=none;fillColor=none;align=left;verticalAlign=top;spacingLeft=4;spacingRight=4;overflow=hidden;rotatable=0;points=[[0,0.5],[1,0.5]];portConstraint=eastwest;whiteSpace=wrap;html=1;" vertex="1" parent="iMSlGVJYnU4fRqpMts-l-101">
          <mxGeometry y="104" width="160" height="26" as="geometry" />
        </mxCell>
        <mxCell id="iMSlGVJYnU4fRqpMts-l-108" value="+ status" style="text;strokeColor=none;fillColor=none;align=left;verticalAlign=top;spacingLeft=4;spacingRight=4;overflow=hidden;rotatable=0;points=[[0,0.5],[1,0.5]];portConstraint=eastwest;whiteSpace=wrap;html=1;" vertex="1" parent="iMSlGVJYnU4fRqpMts-l-101">
          <mxGeometry y="130" width="160" height="26" as="geometry" />
        </mxCell>
        <mxCell id="iMSlGVJYnU4fRqpMts-l-109" value="+ note" style="text;strokeColor=none;fillColor=none;align=left;verticalAlign=top;spacingLeft=4;spacingRight=4;overflow=hidden;rotatable=0;points=[[0,0.5],[1,0.5]];portConstraint=eastwest;whiteSpace=wrap;html=1;" vertex="1" parent="iMSlGVJYnU4fRqpMts-l-101">
          <mxGeometry y="156" width="160" height="26" as="geometry" />
        </mxCell>
        <mxCell id="iMSlGVJYnU4fRqpMts-l-103" value="" style="line;strokeWidth=1;fillColor=none;align=left;verticalAlign=middle;spacingTop=-1;spacingLeft=3;spacingRight=3;rotatable=0;labelPosition=right;points=[];portConstraint=eastwest;strokeColor=inherit;" vertex="1" parent="iMSlGVJYnU4fRqpMts-l-101">
          <mxGeometry y="182" width="160" height="8" as="geometry" />
        </mxCell>
        <mxCell id="iMSlGVJYnU4fRqpMts-l-104" value="+days_to_birthday(self):date " style="text;strokeColor=none;fillColor=none;align=left;verticalAlign=top;spacingLeft=4;spacingRight=4;overflow=hidden;rotatable=0;points=[[0,0.5],[1,0.5]];portConstraint=eastwest;whiteSpace=wrap;html=1;" vertex="1" parent="iMSlGVJYnU4fRqpMts-l-101">
          <mxGeometry y="190" width="160" height="40" as="geometry" />
        </mxCell>
        <mxCell id="iMSlGVJYnU4fRqpMts-l-110" value="" style="endArrow=diamondThin;endFill=0;endSize=24;html=1;rounded=0;entryX=1;entryY=0.5;entryDx=0;entryDy=0;exitX=0;exitY=0.5;exitDx=0;exitDy=0;" edge="1" parent="1" source="iMSlGVJYnU4fRqpMts-l-89" target="iMSlGVJYnU4fRqpMts-l-79">
          <mxGeometry width="160" relative="1" as="geometry">
            <mxPoint x="-150" y="310" as="sourcePoint" />
            <mxPoint x="10" y="310" as="targetPoint" />
            <Array as="points">
              <mxPoint x="-80" y="85" />
            </Array>
          </mxGeometry>
        </mxCell>
        <mxCell id="iMSlGVJYnU4fRqpMts-l-115" value="1" style="endArrow=open;html=1;endSize=12;startArrow=diamondThin;startSize=14;startFill=0;edgeStyle=orthogonalEdgeStyle;align=left;verticalAlign=bottom;rounded=0;exitX=1;exitY=0.5;exitDx=0;exitDy=0;" edge="1" parent="1" source="iMSlGVJYnU4fRqpMts-l-89">
          <mxGeometry x="-1" y="3" relative="1" as="geometry">
            <mxPoint x="210" y="200" as="sourcePoint" />
            <mxPoint x="370" y="200" as="targetPoint" />
            <Array as="points">
              <mxPoint x="200" y="80" />
              <mxPoint x="320" y="80" />
              <mxPoint x="320" y="200" />
            </Array>
          </mxGeometry>
        </mxCell>
        <mxCell id="iMSlGVJYnU4fRqpMts-l-116" value="1" style="endArrow=open;html=1;endSize=12;startArrow=diamondThin;startSize=14;startFill=0;edgeStyle=orthogonalEdgeStyle;align=left;verticalAlign=bottom;rounded=0;entryX=0.5;entryY=0;entryDx=0;entryDy=0;exitX=0;exitY=0.5;exitDx=0;exitDy=0;" edge="1" parent="1" source="iMSlGVJYnU4fRqpMts-l-109" target="iMSlGVJYnU4fRqpMts-l-1">
          <mxGeometry x="-1" y="3" relative="1" as="geometry">
            <mxPoint x="-10" y="460" as="sourcePoint" />
            <mxPoint x="150" y="460" as="targetPoint" />
            <Array as="points">
              <mxPoint x="250" y="289" />
              <mxPoint x="250" y="500" />
              <mxPoint x="190" y="500" />
            </Array>
          </mxGeometry>
        </mxCell>
      </root>
    </mxGraphModel>
  </diagram>
</mxfile>
